<mxfile host="app.diagrams.net" agent="Mozilla/5.0 (Windows NT 10.0; Win64; x64) AppleWebKit/537.36 (KHTML, like Gecko) Chrome/131.0.0.0 Safari/537.36" version="25.0.3">
  <diagram name="Page-1" id="oeuIpNDH-YjWkUIldbOC">
    <mxGraphModel dx="1539" dy="779" grid="1" gridSize="10" guides="1" tooltips="1" connect="1" arrows="1" fold="1" page="1" pageScale="1" pageWidth="827" pageHeight="1169" math="0" shadow="0">
      <root>
        <mxCell id="0" />
        <mxCell id="1" parent="0" />
        <mxCell id="M069dlRBSGd4I6Dbt2pv-31" style="edgeStyle=orthogonalEdgeStyle;rounded=0;orthogonalLoop=1;jettySize=auto;html=1;exitX=0.5;exitY=1;exitDx=0;exitDy=0;entryX=0.5;entryY=0;entryDx=0;entryDy=0;" edge="1" parent="1" source="M069dlRBSGd4I6Dbt2pv-2" target="M069dlRBSGd4I6Dbt2pv-28">
          <mxGeometry relative="1" as="geometry" />
        </mxCell>
        <mxCell id="M069dlRBSGd4I6Dbt2pv-2" value="Начало" style="ellipse;whiteSpace=wrap;html=1;" vertex="1" parent="1">
          <mxGeometry x="-60" y="60" width="120" height="80" as="geometry" />
        </mxCell>
        <mxCell id="M069dlRBSGd4I6Dbt2pv-3" value="Конец" style="ellipse;whiteSpace=wrap;html=1;" vertex="1" parent="1">
          <mxGeometry x="-60" y="960" width="120" height="80" as="geometry" />
        </mxCell>
        <mxCell id="M069dlRBSGd4I6Dbt2pv-4" value="" style="endArrow=none;dashed=1;html=1;dashPattern=1 3;strokeWidth=2;rounded=0;" edge="1" parent="1">
          <mxGeometry width="50" height="50" relative="1" as="geometry">
            <mxPoint y="150" as="sourcePoint" />
            <mxPoint x="195" y="150" as="targetPoint" />
          </mxGeometry>
        </mxCell>
        <mxCell id="M069dlRBSGd4I6Dbt2pv-5" value="&lt;div&gt;#include &amp;lt;iostream&amp;gt;&lt;/div&gt;&lt;div&gt;using namespace std;&lt;/div&gt;&lt;div&gt;int main()&lt;/div&gt;&lt;div&gt;{&lt;/div&gt;&lt;div&gt;&amp;nbsp; &amp;nbsp; setlocale(LC_ALL, &quot;Russian&quot;);&lt;/div&gt;" style="strokeWidth=2;html=1;shape=mxgraph.flowchart.annotation_1;align=left;pointerEvents=1;" vertex="1" parent="1">
          <mxGeometry x="195" y="110" width="50" height="100" as="geometry" />
        </mxCell>
        <mxCell id="M069dlRBSGd4I6Dbt2pv-6" style="edgeStyle=orthogonalEdgeStyle;rounded=0;orthogonalLoop=1;jettySize=auto;html=1;exitX=0.5;exitY=1;exitDx=0;exitDy=0;entryX=0.5;entryY=0;entryDx=0;entryDy=0;" edge="1" parent="1" source="M069dlRBSGd4I6Dbt2pv-7" target="M069dlRBSGd4I6Dbt2pv-9">
          <mxGeometry relative="1" as="geometry" />
        </mxCell>
        <mxCell id="M069dlRBSGd4I6Dbt2pv-7" value="cout &amp;lt;&amp;lt; &quot;Введите 3 числа, по одному в каждой строке: \n&quot;;" style="shape=parallelogram;perimeter=parallelogramPerimeter;whiteSpace=wrap;html=1;fixedSize=1;" vertex="1" parent="1">
          <mxGeometry x="-170" y="260" width="340" height="60" as="geometry" />
        </mxCell>
        <mxCell id="M069dlRBSGd4I6Dbt2pv-8" style="edgeStyle=orthogonalEdgeStyle;rounded=0;orthogonalLoop=1;jettySize=auto;html=1;exitX=0.5;exitY=1;exitDx=0;exitDy=0;entryX=0.5;entryY=0;entryDx=0;entryDy=0;" edge="1" parent="1" source="M069dlRBSGd4I6Dbt2pv-9" target="M069dlRBSGd4I6Dbt2pv-12">
          <mxGeometry relative="1" as="geometry" />
        </mxCell>
        <mxCell id="M069dlRBSGd4I6Dbt2pv-9" value="cin &amp;gt;&amp;gt; a &amp;gt;&amp;gt; b &amp;gt;&amp;gt; c;" style="shape=parallelogram;perimeter=parallelogramPerimeter;whiteSpace=wrap;html=1;fixedSize=1;" vertex="1" parent="1">
          <mxGeometry x="-170" y="350" width="340" height="60" as="geometry" />
        </mxCell>
        <mxCell id="M069dlRBSGd4I6Dbt2pv-10" style="edgeStyle=orthogonalEdgeStyle;rounded=0;orthogonalLoop=1;jettySize=auto;html=1;exitX=0;exitY=0.5;exitDx=0;exitDy=0;entryX=0.5;entryY=0;entryDx=0;entryDy=0;" edge="1" parent="1" source="M069dlRBSGd4I6Dbt2pv-12" target="M069dlRBSGd4I6Dbt2pv-14">
          <mxGeometry relative="1" as="geometry" />
        </mxCell>
        <mxCell id="M069dlRBSGd4I6Dbt2pv-11" style="edgeStyle=orthogonalEdgeStyle;rounded=0;orthogonalLoop=1;jettySize=auto;html=1;exitX=1;exitY=0.5;exitDx=0;exitDy=0;entryX=0.5;entryY=0;entryDx=0;entryDy=0;" edge="1" parent="1" source="M069dlRBSGd4I6Dbt2pv-12" target="M069dlRBSGd4I6Dbt2pv-16">
          <mxGeometry relative="1" as="geometry" />
        </mxCell>
        <mxCell id="M069dlRBSGd4I6Dbt2pv-12" value="if (a &amp;gt;= b)" style="rhombus;whiteSpace=wrap;html=1;" vertex="1" parent="1">
          <mxGeometry x="-60" y="450" width="120" height="80" as="geometry" />
        </mxCell>
        <mxCell id="M069dlRBSGd4I6Dbt2pv-13" style="edgeStyle=orthogonalEdgeStyle;rounded=0;orthogonalLoop=1;jettySize=auto;html=1;exitX=0.5;exitY=1;exitDx=0;exitDy=0;entryX=0.5;entryY=0;entryDx=0;entryDy=0;" edge="1" parent="1" source="M069dlRBSGd4I6Dbt2pv-14" target="M069dlRBSGd4I6Dbt2pv-20">
          <mxGeometry relative="1" as="geometry" />
        </mxCell>
        <mxCell id="M069dlRBSGd4I6Dbt2pv-14" value="max = a;" style="rounded=0;whiteSpace=wrap;html=1;" vertex="1" parent="1">
          <mxGeometry x="-200" y="550" width="120" height="60" as="geometry" />
        </mxCell>
        <mxCell id="M069dlRBSGd4I6Dbt2pv-15" style="edgeStyle=orthogonalEdgeStyle;rounded=0;orthogonalLoop=1;jettySize=auto;html=1;exitX=0.5;exitY=1;exitDx=0;exitDy=0;" edge="1" parent="1" source="M069dlRBSGd4I6Dbt2pv-16" target="M069dlRBSGd4I6Dbt2pv-20">
          <mxGeometry relative="1" as="geometry" />
        </mxCell>
        <mxCell id="M069dlRBSGd4I6Dbt2pv-16" value="max = b;" style="rounded=0;whiteSpace=wrap;html=1;" vertex="1" parent="1">
          <mxGeometry x="80" y="550" width="120" height="60" as="geometry" />
        </mxCell>
        <mxCell id="M069dlRBSGd4I6Dbt2pv-17" value="1" style="text;html=1;align=center;verticalAlign=middle;resizable=0;points=[];autosize=1;strokeColor=none;fillColor=none;" vertex="1" parent="1">
          <mxGeometry x="-155" y="468" width="30" height="30" as="geometry" />
        </mxCell>
        <mxCell id="M069dlRBSGd4I6Dbt2pv-18" value="0" style="text;html=1;align=center;verticalAlign=middle;resizable=0;points=[];autosize=1;strokeColor=none;fillColor=none;" vertex="1" parent="1">
          <mxGeometry x="115" y="468" width="30" height="30" as="geometry" />
        </mxCell>
        <mxCell id="M069dlRBSGd4I6Dbt2pv-19" style="edgeStyle=orthogonalEdgeStyle;rounded=0;orthogonalLoop=1;jettySize=auto;html=1;exitX=0;exitY=0.5;exitDx=0;exitDy=0;entryX=0.5;entryY=0;entryDx=0;entryDy=0;" edge="1" parent="1" source="M069dlRBSGd4I6Dbt2pv-20" target="M069dlRBSGd4I6Dbt2pv-22">
          <mxGeometry relative="1" as="geometry" />
        </mxCell>
        <mxCell id="M069dlRBSGd4I6Dbt2pv-29" style="edgeStyle=orthogonalEdgeStyle;rounded=0;orthogonalLoop=1;jettySize=auto;html=1;exitX=1;exitY=0.5;exitDx=0;exitDy=0;entryX=0.5;entryY=0;entryDx=0;entryDy=0;" edge="1" parent="1" source="M069dlRBSGd4I6Dbt2pv-20" target="M069dlRBSGd4I6Dbt2pv-25">
          <mxGeometry relative="1" as="geometry" />
        </mxCell>
        <mxCell id="M069dlRBSGd4I6Dbt2pv-20" value="if (c &amp;gt; max)" style="rhombus;whiteSpace=wrap;html=1;" vertex="1" parent="1">
          <mxGeometry x="-70" y="660" width="140" height="80" as="geometry" />
        </mxCell>
        <mxCell id="M069dlRBSGd4I6Dbt2pv-21" style="edgeStyle=orthogonalEdgeStyle;rounded=0;orthogonalLoop=1;jettySize=auto;html=1;exitX=0.5;exitY=1;exitDx=0;exitDy=0;" edge="1" parent="1" source="M069dlRBSGd4I6Dbt2pv-22" target="M069dlRBSGd4I6Dbt2pv-25">
          <mxGeometry relative="1" as="geometry" />
        </mxCell>
        <mxCell id="M069dlRBSGd4I6Dbt2pv-22" value="max = c;" style="rounded=0;whiteSpace=wrap;html=1;" vertex="1" parent="1">
          <mxGeometry x="-200" y="740" width="120" height="60" as="geometry" />
        </mxCell>
        <mxCell id="M069dlRBSGd4I6Dbt2pv-23" value="1" style="text;html=1;align=center;verticalAlign=middle;resizable=0;points=[];autosize=1;strokeColor=none;fillColor=none;" vertex="1" parent="1">
          <mxGeometry x="-155" y="668" width="30" height="30" as="geometry" />
        </mxCell>
        <mxCell id="M069dlRBSGd4I6Dbt2pv-24" style="edgeStyle=orthogonalEdgeStyle;rounded=0;orthogonalLoop=1;jettySize=auto;html=1;exitX=0.5;exitY=1;exitDx=0;exitDy=0;entryX=0.5;entryY=0;entryDx=0;entryDy=0;" edge="1" parent="1" source="M069dlRBSGd4I6Dbt2pv-25" target="M069dlRBSGd4I6Dbt2pv-3">
          <mxGeometry relative="1" as="geometry" />
        </mxCell>
        <mxCell id="M069dlRBSGd4I6Dbt2pv-25" value="cout &amp;lt;&amp;lt; max &amp;lt;&amp;lt; endl;" style="shape=parallelogram;perimeter=parallelogramPerimeter;whiteSpace=wrap;html=1;fixedSize=1;" vertex="1" parent="1">
          <mxGeometry x="-170" y="860" width="340" height="60" as="geometry" />
        </mxCell>
        <mxCell id="M069dlRBSGd4I6Dbt2pv-26" value="" style="endArrow=none;dashed=1;html=1;dashPattern=1 3;strokeWidth=2;rounded=0;" edge="1" parent="1" target="M069dlRBSGd4I6Dbt2pv-27">
          <mxGeometry width="50" height="50" relative="1" as="geometry">
            <mxPoint y="940" as="sourcePoint" />
            <mxPoint y="940" as="targetPoint" />
          </mxGeometry>
        </mxCell>
        <mxCell id="M069dlRBSGd4I6Dbt2pv-27" value="&lt;div&gt;&amp;nbsp; &amp;nbsp; return 0;&lt;/div&gt;&lt;div&gt;}&lt;/div&gt;" style="strokeWidth=2;html=1;shape=mxgraph.flowchart.annotation_1;align=left;pointerEvents=1;" vertex="1" parent="1">
          <mxGeometry x="195" y="890" width="55" height="100" as="geometry" />
        </mxCell>
        <mxCell id="M069dlRBSGd4I6Dbt2pv-32" style="edgeStyle=orthogonalEdgeStyle;rounded=0;orthogonalLoop=1;jettySize=auto;html=1;exitX=0.5;exitY=1;exitDx=0;exitDy=0;entryX=0.5;entryY=0;entryDx=0;entryDy=0;" edge="1" parent="1" source="M069dlRBSGd4I6Dbt2pv-28" target="M069dlRBSGd4I6Dbt2pv-7">
          <mxGeometry relative="1" as="geometry" />
        </mxCell>
        <mxCell id="M069dlRBSGd4I6Dbt2pv-28" value="&lt;span style=&quot;text-align: left; text-wrap-mode: nowrap;&quot;&gt;int a, b, c, max;&lt;/span&gt;" style="rounded=0;whiteSpace=wrap;html=1;" vertex="1" parent="1">
          <mxGeometry x="-60" y="160" width="120" height="60" as="geometry" />
        </mxCell>
        <mxCell id="M069dlRBSGd4I6Dbt2pv-30" value="0" style="text;html=1;align=center;verticalAlign=middle;resizable=0;points=[];autosize=1;strokeColor=none;fillColor=none;" vertex="1" parent="1">
          <mxGeometry x="75" y="678" width="30" height="30" as="geometry" />
        </mxCell>
      </root>
    </mxGraphModel>
  </diagram>
</mxfile>
